<svg width="800" height="800" viewBox="0 0 800 800" fill="none" xmlns="http://www.w3.org/2000/svg" preserveAspectRatio="xMidYMid slice">
  <rect width="800" height="800" fill="#F4F2EF"/>
  <rect x="80" y="80" width="640" height="640" fill="#EDE8E2"/>
  <!-- Warm outer border frame -->
  <rect x="2" y="2" width="796" height="796" stroke="#C0AE96" stroke-width="1.5"/>
  <!-- Inner mat frame -->
  <rect x="55" y="55" width="690" height="690" stroke="#C0AE96" stroke-width="0.75"/>
  <!-- Corner L-brackets -->
  <path d="M55 115 L55 55 L115 55" stroke="#C0AE96" stroke-width="2.5" fill="none"/>
  <path d="M685 55 L745 55 L745 115" stroke="#C0AE96" stroke-width="2.5" fill="none"/>
  <path d="M55 685 L55 745 L115 745" stroke="#C0AE96" stroke-width="2.5" fill="none"/>
  <path d="M745 685 L745 745 L685 745" stroke="#C0AE96" stroke-width="2.5" fill="none"/>
  <!-- Subtle warm landscape suggestion -->
  <path d="M100 480 C220 440, 380 460, 500 430 C600 405, 660 420, 700 410" stroke="#B8A080" stroke-opacity="0.35" stroke-width="5" stroke-linecap="round"/>
  <path d="M100 530 C240 500, 420 515, 580 490 C640 480, 680 485, 700 480" stroke="#B8A080" stroke-opacity="0.18" stroke-width="3" stroke-linecap="round"/>
  <!-- Warm ambient circle -->
  <circle cx="560" cy="260" r="140" fill="#C4A882" fill-opacity="0.08"/>
</svg>
